<?xml version="1.0" encoding="UTF-8"?>
<svg width="126px" height="152px" viewBox="0 0 126 152" version="1.1" xmlns="http://www.w3.org/2000/svg" xmlns:xlink="http://www.w3.org/1999/xlink">
  <g id="bonze" fill-rule="nonzero">
      <path d="M113.037211,82 L113.107217,82 C119.124485,82 124,77.0732411 124,71.0020965 C124,64.9267589 119.124485,60 113.107217,60 C113.028905,60 112.950593,60 112.872281,60.004193 L13.127719,60.004193 C13.049407,60 12.971095,60 12.892783,60 C6.87551486,60 2,64.9267589 2,71.0020965 C2,77.0732411 6.87551486,82 12.892783,82 L12.9627892,82" id="Path" fill="#F1B986"></path>
      <path d="M13,150 C13.0746979,147.104763 13.1864483,144.209825 13.3325834,141.314588 C14.0665196,126.794856 25.5344218,115.239733 39.8725601,114.552936 C55.2896677,113.815688 70.7100359,113.815688 86.1301077,114.552936 C100.464985,115.239733 111.933184,126.794856 112.666824,141.314588 C112.813255,144.209825 112.925302,147.104763 113,150 L13,150 Z" id="Path" fill="#E27D47"></path>
      <path d="M62,114 C57.2331268,114 52.4665501,114.185881 47.6996769,114.55434 C38.8316685,115.24111 31.7421229,126.795776 31.2880221,141.314932 C31.1979133,144.210055 31.1261819,147.104877 31.082906,150 L12,150 C12.0746954,147.104877 12.1864422,144.210055 12.3325725,141.314932 C13.0664849,126.795776 24.5340131,115.24111 38.8716839,114.55434 C46.5801346,114.185881 54.2885852,114 62,114 Z" id="Path" fill="#DD542E"></path>
      <path d="M62.9997872,2 C88.5879066,2 107.613514,14.0300811 110.393738,31.7120199 C112.844772,51.4585859 113.567926,71.2084225 112.559355,90.9549885 C111.827032,105.330669 100.381381,116.774425 86.0809724,117.451137 C78.3862581,117.815956 70.6915438,118 62.9997872,118 C55.3083264,118 47.613612,117.815956 39.9188977,117.451137 C25.6184889,116.774425 14.1725422,105.330669 13.4405151,90.9549885 C12.4322401,71.2084225 13.1550984,51.4585859 15.6061323,31.7120199 C18.3860608,14.0300811 37.4119636,2 62.9997872,2 Z" id="Path" fill="#F1D0A5"></path>
      <path d="M48.7165257,118 C45.5464842,117.913052 42.3734539,117.795348 39.2034124,117.646295 C24.7520166,116.973191 13.1852211,105.590451 12.4451661,91.2914197 C11.4262456,71.6501395 12.156736,52.0056062 14.6336484,32.364326 C17.2393831,16.0548534 33.9605596,4.57925191 57,3 C44.7152674,5.56584074 35.9422091,16.7158324 34.5060363,32.1812629 C33.05731,51.9497113 32.631091,71.7214129 33.2267814,91.490157 C33.656886,105.788893 40.3383028,117.184053 48.7165257,118 Z" id="Path" fill="#F1B986"></path>
      <path d="M114.74156,91.1599219 C114.859793,88.8529063 114.951128,86.54025 115.021772,84.2243281 C121.237576,83.21525 126,77.7898594 126,71.266625 C126,64.6718438 121.135895,59.1989531 114.823141,58.2738906 C114.625396,53.9430781 114.34814,49.6187969 113.985756,45.3114375 C113.882302,44.0859375 112.805791,43.1766094 111.59006,43.2802188 C110.370191,43.3838281 109.464822,44.4608906 109.567685,45.6863906 C110.831004,60.7061875 111.081954,75.9284531 110.313439,90.9319219 C109.639511,104.1865 99.1708678,114.653422 85.9621748,115.278938 C78.3213685,115.641719 70.59573,115.825781 62.9995566,115.825781 C55.4033832,115.825781 47.6777448,115.641719 40.0366428,115.278938 C26.8309057,114.653422 16.3625577,104.186203 15.6856739,90.9313281 C14.6904478,71.4664219 15.4119645,51.7096875 17.8304201,32.2058906 C20.4658332,15.60375 38.6116398,4.453125 62.9998522,4.453125 C87.3865867,4.453125 105.532098,15.6043437 108.168693,32.2047031 C108.386242,33.9708125 108.570094,35.5478125 108.730595,37.0244687 C108.863312,38.2467031 109.955193,39.1302031 111.175358,38.9960156 C112.392271,38.8624219 113.271333,37.7633906 113.138616,36.5408594 C112.974273,35.0321406 112.786873,33.4224844 112.564595,31.6195625 C112.561344,31.5949219 112.558093,31.5699844 112.55425,31.5456406 C109.584237,12.6771562 89.6699611,0 62.9998522,0 C36.3297433,0 16.4154669,12.6771562 13.4460456,31.5456406 C13.4422031,31.5696875 13.4389517,31.5937344 13.4359958,31.6177812 C12.3376115,40.467625 11.586832,49.3694219 11.1801106,58.2735937 C4.86587829,59.1971719 0,64.6706562 0,71.266625 C0,77.7898594 4.76242443,83.2149531 10.9782278,84.2243281 C11.0485764,86.5393594 11.1405025,88.8517187 11.2584399,91.159625 C11.6412192,98.6542344 14.7649345,105.693734 20.0543825,110.981375 C22.1098628,113.036344 24.4298895,114.756734 26.9334728,116.119094 C20.4844549,119.646266 15.4193541,125.508359 12.9432599,132.526484 C12.5341738,133.685484 13.1383443,134.958187 14.2922982,135.368766 C14.5370405,135.45575 14.7871032,135.497312 15.0327322,135.497312 C15.9451953,135.497312 16.8000197,134.927016 17.1222046,134.013828 C19.6597799,126.821734 25.3878722,121.052859 32.5232325,118.458766 C34.8769556,119.174234 37.3264474,119.608859 39.8279616,119.727312 C47.5382298,120.093359 55.3345125,120.278906 63.0001478,120.278906 C68.695726,120.278906 74.4634264,120.175891 80.2145741,119.973125 C67.4560532,131.419734 47.4637431,145.119922 43.8883777,147.546875 L15.4249701,147.546875 C15.4876336,145.651328 15.5671453,143.722828 15.662914,141.787797 C15.7232128,140.559625 14.7811916,139.514625 13.558367,139.453766 C12.3275617,139.391125 11.2953877,140.339344 11.2344978,141.567516 C11.0988254,144.320437 10.9947804,147.061484 10.9253185,149.714953 C10.9093571,150.315234 11.1360688,150.896812 11.5531356,151.326984 C11.9704981,151.757156 12.5433368,152 13.1413001,152 L112.8587,152 C113.456368,152 114.029206,151.757453 114.446569,151.327281 C114.863636,150.897109 115.090347,150.316125 115.074681,149.715844 C115.001673,146.885141 114.888465,143.97725 114.738604,141.074406 C114.425287,134.913656 112.282905,129.083328 108.542309,124.213984 C105.95685,120.848609 102.737661,118.107266 99.0745079,116.115234 C101.575431,114.753469 103.893093,113.034266 105.9468,110.981375 C111.236839,105.693141 114.360554,98.6536406 114.74156,91.1599219 L114.74156,91.1599219 Z M121.566263,71.266625 C121.566263,75.285125 118.831239,78.6730625 115.132911,79.6542344 C115.227793,74.0584375 115.183751,68.4475 115.002855,62.8422031 C118.766802,63.77825 121.566263,67.1994375 121.566263,71.266625 Z M4.43344117,71.266625 C4.43344117,67.1967656 7.23615396,63.7740938 11.0036479,62.8407188 C10.8218647,68.45225 10.7751626,74.0611094 10.8694534,79.655125 C7.16994349,78.6748437 4.43344117,75.2860156 4.43344117,71.266625 L4.43344117,71.266625 Z M110.575325,147.546875 L74.4096304,147.546875 C76.0681435,146.947188 77.8179916,146.290797 79.6278429,145.578 C91.911954,140.739234 101.182011,135.624078 107.245885,130.346531 C109.064012,133.700031 110.113626,137.423141 110.310779,141.303 C110.418667,143.393297 110.507341,145.484781 110.575325,147.546875 L110.575325,147.546875 Z M104.769199,126.604719 C91.5061193,138.496047 63.0385735,146.680891 59.9385048,147.546875 L51.7287022,147.546875 C60.6032697,141.34575 77.2753022,129.289062 87.0428243,119.665859 C89.2404798,119.497828 91.3940935,119.091406 93.4720381,118.46025 C97.9211452,120.074062 101.807168,122.875375 104.769199,126.604719 L104.769199,126.604719 Z" id="Shape" fill="#000000"></path>
      <path d="M51.2798857,84.2173141 C50.1624754,84.749186 49.6864861,86.0887487 50.216823,87.2093934 C52.4561228,91.9420357 57.2775302,95 62.4999751,95 C67.7224199,95 72.5438274,91.9420357 74.7831272,87.2093934 C75.3134641,86.0887487 74.8377734,84.749186 73.7200645,84.2173141 C72.6023555,83.6857416 71.2666591,84.1628092 70.7366208,85.2837533 C69.2348954,88.4573159 66.0018111,90.5081376 62.4999751,90.5081376 C58.998139,90.5081376 55.7650548,88.4573159 54.2633294,85.2837533 C53.7329925,84.1628092 52.3966988,83.686041 51.2798857,84.2173141 Z" id="Path" fill="#000000"></path>
      <path d="M35,67.5 C35,71.0839513 37.0186667,74 39.5001481,74 C41.9816296,74 44,71.0842382 44,67.5 C44,63.9160487 41.9813333,61 39.5001481,61 C37.018963,61 35,63.9157618 35,67.5 Z" id="Path" fill="#000000"></path>
      <path d="M81,67.5 C81,71.0839513 83.0186667,74 85.4998519,74 C87.981037,74 90,71.0842382 90,67.5 C90,63.9160487 87.9813333,61 85.4998519,61 C83.0183704,61 81,63.9157618 81,67.5 Z" id="Path" fill="#000000"></path>
      <path d="M56.9987992,39 C57.9346217,39 58.7617766,38.320467 58.955349,37.4061328 C59.3315469,35.6282755 57.2481739,34.3157419 55.8013203,35.3857189 C55.0844349,35.9160274 54.8118316,36.8942768 55.1340962,37.7230342 C55.4296613,38.4833303 56.1831252,39 56.9987992,39 L56.9987992,39 Z" id="Path" fill="#000000"></path>
      <path d="M56.9987121,28 C57.9246409,28 58.7430338,27.3369479 58.9487661,26.4351436 C59.3476893,24.6876805 57.3314594,23.3433959 55.8694526,24.3398456 C55.1121656,24.8561172 54.8002317,25.8605876 55.1316448,26.716406 C55.4275685,27.4810548 56.1792518,28 56.9987121,28 L56.9987121,28 Z" id="Path" fill="#000000"></path>
      <path d="M55.7694687,14.4113277 C55.1103032,14.9234985 54.8356953,15.830696 55.0990947,16.6239589 C55.3691657,17.4372808 56.1433517,18 56.9994663,18 C57.9607272,18 58.804299,17.2867052 58.9694906,16.3380526 C59.2777239,14.5680546 57.1820045,13.3139717 55.7694687,14.4113277 L55.7694687,14.4113277 Z" id="Path" fill="#000000"></path>
      <path d="M68.9390156,35.2319902 C68.1428686,34.8091402 67.1333628,34.9759844 66.5200566,35.6374884 C65.3536772,36.8956273 66.281266,39 67.9937583,39 C68.932323,39 69.7640744,38.3211443 69.9578909,37.4089735 C70.1407317,36.5509938 69.7148171,35.6438952 68.9390156,35.2319902 Z" id="Path" fill="#000000"></path>
      <path d="M68.9374457,24.2318938 C68.1933611,23.8357287 67.2444926,23.9553257 66.6263878,24.5282167 C65.3175388,25.7412719 66.1980567,28 67.9909895,28 C68.9602292,28 69.7992006,27.2840198 69.9699433,26.3392569 C70.121387,25.501544 69.6887673,24.6320632 68.9374457,24.2318938 L68.9374457,24.2318938 Z" id="Path" fill="#000000"></path>
      <path d="M66.7361939,14.4361024 C66.0987879,14.9552128 65.840517,15.8405651 66.0995883,16.6225772 C66.3690651,17.4359125 67.1420099,18 67.9984658,18 C69.0155406,18 69.886671,17.2024601 69.9893924,16.1888697 C70.1668202,14.4435986 68.0782416,13.3435344 66.7361939,14.4361024 Z" id="Path" fill="#000000"></path>
  </g>
</svg>
